<?xml version="1.0" encoding="utf-8"?>
<!-- Generator: Adobe Illustrator 24.0.1, SVG Export Plug-In . SVG Version: 6.00 Build 0)  -->
<svg version="1.1" id="Слой_1" xmlns="http://www.w3.org/2000/svg" xmlns:xlink="http://www.w3.org/1999/xlink" x="0px" y="0px"
	 viewBox="0 0 567.1 191" style="enable-background:new 0 0 567.1 191;" xml:space="preserve">
<style type="text/css">
	.st0{fill:#FFFFFF;}
	.st1{fill:#08C069;}
</style>
<path class="st0" d="M44.2,96.7l-3.1,15.6H79l0,0.2c-2.7,13.3-14.4,22.9-28,22.9H36.5l-5.8,29.1H0l18.2-90.9h73.9l0,0.2
	c-2.7,13.3-14.4,22.9-28,22.9H44.2z"/>
<path class="st0" d="M173.4,93.4l-14.2,71.1h-27.7l1.4-7.1c-3,2.9-6.4,5-10,6.4s-7.3,2.1-11,2.1c-7.6,0-13.7-2.1-18.3-6.2
	c-4.6-4.2-6.9-10.1-6.9-17.9c0-2.9,0.3-5.9,0.9-9l7.8-39.2h29.4l-7.1,35.7c-0.3,2.1-0.5,3.6-0.5,4.4c0,5,2.4,7.5,7.1,7.5
	c6.8,0,11-4.5,12.9-13.5l6.9-34.2H173.4z"/>
<path class="st0" d="M265.5,93.4l-43.7,72.5c-3.9,6.5-7.7,11.5-11.4,15.1c-3.7,3.6-7.7,6.1-11.9,7.7c-4.2,1.5-9.1,2.3-14.7,2.3
	c-3.9,0-7.8-0.6-11.6-1.7c-3.9-1.1-6.9-2.6-9.3-4.4l12.7-20.4c3.3,2.5,6.8,3.8,10.7,3.8c2.9,0,5.3-1,7.3-3L178,93.4h29.2l7.3,38.2
	l22.3-38.2H265.5z"/>
<path class="st0" d="M275.2,161.7c-5.8-2.7-10.3-6.6-13.4-11.5c-3.2-4.9-4.7-10.7-4.7-17.3c0-7.7,1.9-14.7,5.7-20.9
	c3.8-6.2,9.1-11.1,15.8-14.6c6.7-3.6,14.3-5.3,22.8-5.3c7.8,0,14.6,1.4,20.4,4.1c5.8,2.7,10.3,6.6,13.4,11.5
	c3.2,4.9,4.7,10.7,4.7,17.3c0,7.7-1.9,14.7-5.7,20.8c-3.8,6.2-9.1,11.1-15.8,14.6c-6.7,3.6-14.3,5.3-22.8,5.3
	C287.8,165.8,281,164.4,275.2,161.7z M306.5,138.2c2.4-2.9,3.6-6.9,3.6-11.8c0-3.4-0.9-6.1-2.8-8.1c-1.9-2-4.4-3.1-7.7-3.1
	c-3.8,0-6.9,1.5-9.3,4.4c-2.4,2.9-3.6,6.9-3.6,11.8c0,3.4,0.9,6.1,2.8,8.1c1.9,2,4.4,3.1,7.7,3.1C301,142.7,304.1,141.2,306.5,138.2
	z"/>
<path class="st0" d="M415.5,96c4.5,2.6,8.2,6.4,11,11.4c2.8,5,4.2,10.8,4.2,17.6c0,7.6-1.7,14.5-5.1,20.8c-3.4,6.2-8,11.1-13.8,14.7
	c-5.8,3.6-12.1,5.3-18.8,5.3c-9.5,0-16.3-2.9-20.3-8.8l-0.9,4.3c-3.4,16.6-17.9,28.5-34.8,28.5h-0.3l19.2-96.3h27.7l-1.3,6.5
	c5.4-5.2,11.8-7.8,19.2-7.8C406.3,92.1,411,93.4,415.5,96z M397.3,138.2c2.4-2.9,3.6-6.9,3.6-11.8c0-3.4-0.9-6.1-2.8-8.1
	c-1.9-2-4.4-3.1-7.7-3.1c-3.8,0-6.9,1.5-9.3,4.4c-2.4,2.9-3.6,6.9-3.6,11.8c0,3.4,0.9,6.1,2.8,8.1c1.9,2,4.4,3.1,7.7,3.1
	C391.9,142.7,395,141.2,397.3,138.2z"/>
<path class="st0" d="M567.1,93.4l-14.2,71.1h-27.7l1.3-6.5c-5.4,5.2-11.8,7.8-19.2,7.8c-4.9,0-9.5-1.3-14-3.9
	c-4.5-2.6-8.2-6.4-11-11.4c-2.8-5-4.2-10.8-4.2-17.6c0-7.6,1.7-14.5,5.1-20.8c3.4-6.2,8-11.1,13.8-14.7c5.8-3.6,12.1-5.3,18.8-5.3
	c9.5,0,16.3,2.9,20.3,8.8l1.6-7.5H567.1z M510.6,139.6c1.9,2,4.4,3.1,7.7,3.1c3.8,0,6.9-1.5,9.3-4.4c2.4-2.9,3.6-6.9,3.6-11.8
	c0-3.4-0.9-6.1-2.8-8.1c-1.9-2-4.4-3.1-7.7-3.1c-3.8,0-6.9,1.5-9.3,4.4c-2.4,2.9-3.6,6.9-3.6,11.8
	C507.8,134.9,508.8,137.6,510.6,139.6z"/>
<path class="st1" d="M471,103.6c-2.8,0-5.3-2.1-5.6-5c-0.3-3.1,1.8-5.2,4.9-5.6c1.8-0.2,3.7-1.1,5.6-1.4c15.3-2.2,29.5-6.3,32.7-9.4
	c-0.5-0.5-1.5-1.5-3.6-2.7c-2.4-1.5-5.1-2.9-8.1-4.4c-27,7.7-61.1,9.8-78,3.5c-12.8-4.8-14.3-13.1-14.1-17.6
	c0.3-6.2,3.3-11,8.8-13.9c17-9.1,58.3,3.7,84.4,16c11.9-3.7,21.4-8.5,25.5-13.6c2.3-2.9,1.9-4.7,0.5-6.7c-3.3-5-9.7-9.6-18-13.7
	c-35.8,8.6-81.4,14.3-102.7,7.3c-7.2-2.4-12-6.1-14.1-11.2c-3.3-8-0.5-15.4,7.6-19.7c15.2-8.2,47.5-5.6,70.5-0.9
	c9,1.8,25.4,5.8,40.2,12.5c17.2-4.3,31.5-9.1,38.1-13.1c2.7-1.6,6.2-0.8,7.8,1.9c1.6,2.7,0.8,6.2-1.9,7.8
	c-5.8,3.5-16.5,7.5-29.8,11.3c4.8,3.4,8.9,7.2,11.8,11.4c4.4,6.6,4,13.7-1,20.1c-4.1,5.3-11.6,9.9-20.9,13.7c6.8,4.2,9.7,9,8.6,14.2
	c-2.7,12.3-31.4,17.3-48.3,19.2C471.5,103.5,471.3,103.6,471,103.6z M429.2,55.1c-4.3,0-7.8,0.6-10.2,1.9c-1.9,1-2.7,2.3-2.8,4.5
	c0,1-0.2,3.9,6.8,6.5c12.5,4.7,35.8,3.8,57-0.4C462.2,60.5,442.2,55.1,429.2,55.1z M426.2,11.2c-10.3,0-18.9,1.3-24.1,4.1
	c-3.6,1.9-3.3,3.4-2.5,5.4c1,2.4,4.4,3.9,7.2,4.8c16.1,5.3,49.7,2,80.3-4.1C467.5,15.1,444.3,11.2,426.2,11.2z"/>
<g>
	<path class="st0" d="M482.6,67.2l5.4-23.9h-1.1c-16.4,0-30.6,11.6-34.1,27.6C452.8,70.9,466.5,70.4,482.6,67.2z"/>
	<path class="st0" d="M447.3,94.6l-14.7,70h29.2l15.4-73.3C471.4,92.2,458.9,93.9,447.3,94.6z"/>
</g>
</svg>
