<svg width="502" height="592" viewBox="0 0 502 592" fill="none" xmlns="http://www.w3.org/2000/svg">
<rect x="1.991" y="23.3728" width="262.841" height="545.354" rx="41.1643" transform="rotate(-5.06 1.991 23.3728)" fill="#131316"/>
<rect x="6.23776" y="26.0105" width="255.846" height="538.349" rx="37.6241" transform="rotate(-5.06 6.23776 26.0105)" fill="#1B1B1F"/>
<rect x="11.6498" y="155.12" width="1.99879" height="38.0246" rx="0.884738" transform="rotate(-5.06 11.6498 155.12)" fill="#131316"/>
<rect x="15.8861" y="202.964" width="1.99879" height="38.0246" rx="0.884738" transform="rotate(-5.06 15.8861 202.964)" fill="#131316"/>
<rect x="8.4726" y="119.237" width="1.99879" height="19.0123" rx="0.884738" transform="rotate(-5.06 8.4726 119.237)" fill="#131316"/>
<rect x="277.753" y="157.677" width="1.99879" height="60.0389" rx="0.884738" transform="rotate(-5.06 277.753 157.677)" fill="#131316"/>
<rect x="13.9124" y="33.3674" width="241.854" height="523.339" rx="31.0294" transform="rotate(-5.06 13.9124 33.3674)" fill="#222227"/>
<rect x="99.0595" y="31.8555" width="70.9572" height="21.0136" rx="10.5068" transform="rotate(-5.06 99.0595 31.8555)" fill="#131316"/>
<g clip-path="url(#clip0_76_1991)">
<path d="M71.1825 294.117L70.6655 300.166L84.6429 298.689L84.651 298.765C84.1891 303.925 80.2595 308.028 75.2438 308.558L69.8962 309.123L68.9253 320.407L57.6032 321.603L60.6665 286.352L87.9207 283.473L87.9288 283.549C87.4669 288.708 83.5373 292.812 78.5216 293.342L71.1825 294.117Z" fill="white"/>
<path d="M118.699 287.83L116.316 315.401L106.1 316.48L106.332 313.728C105.342 314.946 104.172 315.877 102.9 316.549C101.629 317.221 100.292 317.631 98.9279 317.776C96.1251 318.072 93.7911 317.511 91.9301 316.133C90.065 314.716 88.9799 312.563 88.6668 309.599C88.5504 308.497 88.5406 307.346 88.6375 306.144L89.9406 290.944L100.783 289.799L99.5978 303.642C99.5715 304.451 99.5579 305.029 99.59 305.333C99.7907 307.233 100.776 308.09 102.51 307.907C105.017 307.642 106.386 305.768 106.725 302.274L107.897 289.009L118.703 287.868L118.699 287.83Z" fill="white"/>
<path d="M152.665 284.242L139.459 313.494C138.282 316.116 137.081 318.164 135.861 319.676C134.641 321.189 133.266 322.294 131.781 323.066C130.292 323.8 128.517 324.295 126.452 324.513C125.014 324.665 123.551 324.589 122.106 324.319C120.623 324.053 119.457 323.599 118.499 323.009L122.364 314.762C123.682 315.584 125.025 315.941 126.463 315.789C127.532 315.676 128.377 315.203 129.035 314.365L120.395 287.651L131.164 286.513L135.39 300.745L142.081 285.36L152.665 284.242Z" fill="white"/>
<path d="M158.984 309.818C156.737 309.018 154.921 307.711 153.581 305.97C152.204 304.233 151.418 302.087 151.153 299.579C150.844 296.653 151.264 293.919 152.416 291.415C153.569 288.911 155.327 286.842 157.657 285.251C159.984 283.622 162.718 282.68 165.853 282.349C168.73 282.045 171.294 282.312 173.541 283.112C175.788 283.912 177.605 285.219 178.945 286.96C180.321 288.698 181.107 290.843 181.372 293.351C181.681 296.277 181.262 299.011 180.105 301.477C178.953 303.981 177.195 306.05 174.864 307.641C172.538 309.27 169.803 310.212 166.668 310.543C163.796 310.885 161.232 310.618 158.984 309.818ZM169.584 299.669C170.353 298.473 170.635 296.906 170.438 295.044C170.302 293.752 169.862 292.761 169.081 292.075C168.3 291.389 167.333 291.069 166.116 291.197C164.715 291.345 163.632 292.036 162.863 293.232C162.094 294.427 161.812 295.994 162.009 297.856C162.146 299.148 162.586 300.139 163.367 300.825C164.148 301.511 165.114 301.831 166.331 301.703C167.737 301.593 168.82 300.902 169.584 299.669Z" fill="white"/>
<path d="M208.089 279.386C209.853 280.199 211.37 281.499 212.604 283.29C213.837 285.08 214.586 287.23 214.859 289.814C215.164 292.702 214.814 295.39 213.813 297.917C212.808 300.405 211.308 302.446 209.314 304.04C207.319 305.634 205.064 306.526 202.593 306.787C199.09 307.157 196.465 306.32 194.753 304.234L194.594 305.903C194.007 312.343 189.137 317.43 182.904 318.088L182.793 318.1L186.009 280.758L196.224 279.679L196.006 282.199C197.789 280.013 200.045 278.776 202.774 278.487C204.54 278.262 206.325 278.573 208.089 279.386ZM203.071 296.131C203.84 294.936 204.122 293.369 203.925 291.507C203.789 290.215 203.348 289.224 202.567 288.538C201.786 287.852 200.82 287.531 199.603 287.66C198.202 287.808 197.119 288.499 196.35 289.694C195.581 290.89 195.299 292.457 195.496 294.319C195.633 295.611 196.073 296.601 196.854 297.287C197.635 297.973 198.601 298.294 199.818 298.165C201.26 298.052 202.343 297.361 203.071 296.131Z" fill="white"/>
<path d="M263.895 272.492L261.512 300.063L251.296 301.143L251.515 298.622C249.732 300.808 247.476 302.046 244.747 302.334C242.94 302.525 241.191 302.21 239.427 301.397C237.663 300.585 236.146 299.285 234.913 297.494C233.679 295.703 232.93 293.553 232.657 290.969C232.352 288.081 232.702 285.393 233.703 282.867C234.708 280.378 236.208 278.337 238.203 276.743C240.197 275.149 242.452 274.258 244.923 273.997C248.427 273.627 251.051 274.464 252.763 276.55L253.052 273.637L263.895 272.492ZM244.912 292.249C245.693 292.935 246.659 293.256 247.876 293.127C249.278 292.979 250.361 292.288 251.13 291.093C251.898 289.897 252.18 288.331 251.984 286.469C251.847 285.177 251.407 284.186 250.626 283.5C249.845 282.814 248.879 282.493 247.662 282.622C246.26 282.77 245.177 283.461 244.409 284.656C243.64 285.852 243.358 287.418 243.555 289.28C243.691 290.572 244.168 291.559 244.912 292.249Z" fill="white"/>
<path d="M228.863 280.112C227.83 280.221 226.824 279.52 226.597 278.43C226.362 277.264 227.052 276.384 228.179 276.111C228.835 275.965 229.5 275.549 230.188 275.361C235.743 273.929 240.815 271.818 241.871 270.515C241.666 270.345 241.257 270.003 240.435 269.629C239.489 269.153 238.437 268.726 237.271 268.273C227.622 272.251 215.13 274.377 208.645 272.642C203.732 271.316 202.845 268.221 202.738 266.503C202.6 264.135 203.514 262.194 205.426 260.878C211.33 256.758 227.075 260.013 237.195 263.67C241.435 261.8 244.746 259.606 246.053 257.509C246.785 256.317 246.565 255.649 245.969 254.943C244.551 253.172 242.006 251.673 238.78 250.438C225.922 255.101 209.334 259.043 201.198 257.213C198.446 256.582 196.527 255.363 195.548 253.507C194.01 250.595 194.745 247.674 197.56 245.724C202.837 242.016 214.853 241.746 223.524 242.636C226.916 242.969 233.125 243.85 238.852 245.82C245.022 243.516 250.104 241.135 252.377 239.358C253.309 238.644 254.632 238.812 255.33 239.776C256.029 240.739 255.874 242.1 254.942 242.814C252.944 244.37 249.158 246.306 244.406 248.269C246.313 249.374 247.977 250.658 249.215 252.141C251.103 254.478 251.24 257.191 249.653 259.818C248.354 261.992 245.773 264.032 242.495 265.838C245.172 267.169 246.434 268.88 246.237 270.899C245.735 275.678 235.351 278.696 229.195 280.077C229.043 280.054 228.973 280.1 228.863 280.112ZM211.5 263.31C209.914 263.478 208.648 263.842 207.815 264.43C207.154 264.884 206.911 265.409 206.963 266.249C207.003 266.629 207.045 267.738 209.731 268.454C214.53 269.753 223.087 268.503 230.737 266.081C223.887 264.077 216.295 262.804 211.5 263.31ZM208.632 246.745C204.833 247.146 201.713 247.975 199.908 249.242C198.657 250.104 198.828 250.663 199.203 251.391C199.668 252.264 200.982 252.702 202.051 252.935C208.201 254.322 220.46 251.759 231.501 248.249C224.02 246.618 215.307 246.04 208.632 246.745Z" fill="#08C069"/>
<path d="M231.68 265.828L232.712 256.536L232.306 256.578C226.258 257.217 221.487 262.179 220.838 268.395C220.838 268.395 225.87 267.671 231.68 265.828Z" fill="white"/>
<path d="M219.761 277.615L217.149 304.788L227.918 303.65L230.656 275.196C228.553 275.764 224.011 276.897 219.761 277.615Z" fill="white"/>
</g>
<rect x="236.995" y="30.6749" width="262.841" height="545.354" rx="41.1643" transform="rotate(3.61 236.995 30.6749)" fill="#131316"/>
<rect x="240.795" y="33.9226" width="255.846" height="538.349" rx="37.6241" transform="rotate(3.61 240.795 33.9226)" fill="#1B1B1F"/>
<rect x="226.683" y="162.373" width="1.99879" height="38.0246" rx="0.884738" transform="rotate(3.61 226.683 162.373)" fill="#131316"/>
<rect x="223.659" y="210.308" width="1.99879" height="38.0246" rx="0.884738" transform="rotate(3.61 223.659 210.308)" fill="#131316"/>
<rect x="228.951" y="126.421" width="1.99879" height="19.0123" rx="0.884738" transform="rotate(3.61 228.951 126.421)" fill="#131316"/>
<rect x="489.36" y="205.013" width="1.99879" height="60.0389" rx="0.884738" transform="rotate(3.61 489.36 205.013)" fill="#131316"/>
<rect x="247.273" y="42.3524" width="241.854" height="523.339" rx="31.0294" transform="rotate(3.61 247.273 42.3524)" fill="#222227"/>
<rect x="331.675" y="53.6931" width="70.9572" height="21.0136" rx="10.5068" transform="rotate(3.61 331.675 53.6931)" fill="#131316"/>
<g clip-path="url(#clip1_76_1991)">
<path d="M263.09 279.092L261.489 284.948L275.503 286.019L275.498 286.095C274.112 291.086 269.506 294.414 264.477 294.029L259.116 293.619L256.124 304.543L244.772 303.675L254.148 269.556L281.474 271.645L281.468 271.721C280.083 276.712 275.477 280.039 270.448 279.655L263.09 279.092Z" fill="white"/>
<path d="M310.96 281.486L303.639 308.174L293.397 307.391L294.121 304.726C292.927 305.746 291.609 306.45 290.237 306.881C288.865 307.313 287.477 307.475 286.108 307.371C283.298 307.156 281.104 306.183 279.522 304.491C277.943 302.761 277.265 300.448 277.492 297.476C277.576 296.371 277.775 295.237 278.087 294.073L282.112 279.358L292.984 280.189L289.319 293.59C289.147 294.381 289.029 294.947 289.006 295.252C288.86 297.157 289.675 298.177 291.413 298.31C293.927 298.502 295.611 296.907 296.576 293.531L300.123 280.696L310.957 281.524L310.96 281.486Z" fill="white"/>
<path d="M345.016 284.088L326.746 310.476C325.115 312.843 323.564 314.64 322.091 315.907C320.618 317.174 319.066 318.014 317.467 318.505C315.87 318.958 314.035 319.124 311.964 318.966C310.522 318.855 309.097 318.517 307.724 317.99C306.314 317.461 305.249 316.805 304.414 316.051L309.704 308.637C310.851 309.683 312.107 310.277 313.55 310.387C314.622 310.469 315.538 310.156 316.336 309.451L312.661 281.616L323.459 282.441L325.046 297.201L334.404 283.277L345.016 284.088Z" fill="white"/>
<path d="M346.614 310.385C344.548 309.192 342.998 307.579 341.994 305.625C340.954 303.667 340.568 301.415 340.76 298.901C340.984 295.967 341.891 293.354 343.476 291.099C345.062 288.844 347.164 287.127 349.744 285.982C352.326 284.8 355.186 284.367 358.329 284.607C361.213 284.828 363.687 285.553 365.753 286.746C367.819 287.939 369.369 289.552 370.373 291.506C371.414 293.464 371.799 295.716 371.607 298.23C371.383 301.164 370.477 303.777 368.894 305.994C367.308 308.249 365.206 309.966 362.626 311.11C360.044 312.293 357.184 312.726 354.041 312.485C351.154 312.303 348.681 311.578 346.614 310.385ZM358.873 302.316C359.844 301.279 360.405 299.789 360.547 297.922C360.646 296.626 360.392 295.572 359.748 294.756C359.103 293.941 358.211 293.451 356.991 293.358C355.586 293.25 354.396 293.734 353.424 294.771C352.452 295.808 351.892 297.299 351.749 299.165C351.65 300.461 351.904 301.515 352.549 302.331C353.193 303.146 354.085 303.636 355.306 303.729C356.708 303.875 357.898 303.391 358.873 302.316Z" fill="white"/>
<path d="M400.406 289.318C401.995 290.435 403.252 291.988 404.142 293.972C405.032 295.956 405.381 298.205 405.183 300.796C404.961 303.692 404.132 306.273 402.691 308.577C401.253 310.843 399.41 312.58 397.16 313.788C394.911 314.996 392.532 315.465 390.054 315.276C386.541 315.007 384.111 313.71 382.804 311.349L382.346 312.962C380.606 319.191 374.897 323.315 368.648 322.838L368.537 322.829L378.441 286.681L388.684 287.464L388.014 289.903C390.162 288.075 392.604 287.265 395.34 287.474C397.118 287.572 398.818 288.2 400.406 289.318ZM392.448 304.882C393.42 303.845 393.98 302.354 394.123 300.488C394.222 299.192 393.967 298.138 393.323 297.322C392.679 296.507 391.786 296.017 390.566 295.924C389.161 295.816 387.971 296.3 386.999 297.337C386.027 298.374 385.467 299.864 385.324 301.731C385.225 303.027 385.48 304.081 386.124 304.897C386.768 305.712 387.661 306.202 388.881 306.295C390.32 306.444 391.51 305.96 392.448 304.882Z" fill="white"/>
<path d="M456.54 292.611L449.219 319.299L438.976 318.516L439.646 316.076C437.498 317.905 435.056 318.715 432.319 318.506C430.507 318.367 428.844 317.742 427.256 316.624C425.668 315.506 424.41 313.954 423.52 311.97C422.631 309.986 422.282 307.736 422.48 305.146C422.701 302.25 423.531 299.669 424.971 297.365C426.409 295.099 428.253 293.362 430.502 292.154C432.752 290.946 435.131 290.477 437.608 290.666C441.121 290.934 443.551 292.231 444.858 294.592L445.668 291.78L456.54 292.611ZM434.302 308.617C434.947 309.432 435.839 309.922 437.059 310.015C438.464 310.123 439.654 309.639 440.626 308.602C441.598 307.565 442.158 306.075 442.301 304.208C442.4 302.912 442.146 301.858 441.502 301.042C440.857 300.227 439.965 299.737 438.745 299.644C437.339 299.536 436.149 300.02 435.178 301.057C434.206 302.094 433.646 303.585 433.503 305.451C433.404 306.747 433.695 307.804 434.302 308.617Z" fill="white"/>
<path d="M420.708 293.781C419.672 293.702 418.809 292.832 418.782 291.718C418.762 290.529 419.599 289.788 420.757 289.723C421.429 289.698 422.158 289.409 422.869 289.348C428.59 288.942 433.961 287.781 435.234 286.69C435.064 286.486 434.723 286.077 433.982 285.56C433.138 284.921 432.18 284.311 431.114 283.655C420.906 285.826 408.236 285.662 402.17 282.784C397.577 280.594 397.264 277.389 397.469 275.68C397.76 273.326 399.01 271.582 401.128 270.633C407.679 267.646 422.578 273.69 431.871 279.114C436.379 278.04 440.031 276.48 441.696 274.653C442.631 273.613 442.535 272.916 442.076 272.114C441.001 270.116 438.768 268.182 435.819 266.386C422.331 268.651 405.303 269.534 397.631 266.265C395.038 265.147 393.371 263.602 392.743 261.599C391.756 258.458 393.006 255.718 396.127 254.308C401.986 251.613 413.854 253.517 422.222 255.957C425.497 256.898 431.445 258.885 436.723 261.856C443.208 260.704 448.636 259.279 451.193 257.941C452.238 257.408 453.508 257.812 454.021 258.886C454.534 259.96 454.137 261.271 453.092 261.804C450.845 262.974 446.772 264.195 441.744 265.267C443.419 266.698 444.825 268.262 445.775 269.944C447.21 272.583 446.855 275.277 444.82 277.574C443.15 279.477 440.242 281.018 436.693 282.203C439.085 283.996 440.018 285.906 439.459 287.856C438.103 292.467 427.345 293.561 421.04 293.807C420.895 293.758 420.819 293.79 420.708 293.781ZM406.663 274.122C405.073 274 403.762 274.13 402.836 274.557C402.105 274.885 401.771 275.357 401.67 276.193C401.641 276.574 401.482 277.673 403.995 278.861C408.48 281.005 417.122 281.321 425.084 280.32C418.708 277.112 411.47 274.489 406.663 274.122ZM406.832 257.311C403.023 257.02 399.806 257.272 397.801 258.192C396.415 258.814 396.482 259.394 396.72 260.179C397.019 261.121 398.233 261.789 399.242 262.211C405.041 264.685 417.562 264.377 429.054 262.918C421.99 259.964 413.525 257.822 406.832 257.311Z" fill="#08C069"/>
<path d="M426.057 280.241L428.749 271.287L428.343 271.256C422.278 270.793 416.69 274.811 414.93 280.808C414.93 280.808 420.01 281.005 426.057 280.241Z" fill="white"/>
<path d="M412.206 289.683L404.732 315.938L415.53 316.763L423.358 289.27C421.187 289.449 416.516 289.744 412.206 289.683Z" fill="white"/>
</g>
<defs>
<clipPath id="clip0_76_1991">
<rect width="210.309" height="72.9841" fill="white" transform="translate(51 259.093) rotate(-6.03)"/>
</clipPath>
<clipPath id="clip1_76_1991">
<rect width="210.309" height="72.9841" fill="white" transform="translate(249.561 241) rotate(4.37)"/>
</clipPath>
</defs>
</svg>
