<svg width="88" height="81" viewBox="0 0 88 81" fill="none" xmlns="http://www.w3.org/2000/svg">
<path d="M73.1854 0H14.7117C10.8113 0.00553953 7.07208 1.8451 4.31412 5.11518C1.55615 8.38525 0.00467201 12.8188 0 17.4434V62.8507C0.00467201 67.4753 1.55615 71.9089 4.31412 75.179C7.07208 78.449 10.8113 80.2886 14.7117 80.2941H73.1854C77.0857 80.2886 80.825 78.449 83.5829 75.179C86.3409 71.9089 87.8924 67.4753 87.8971 62.8507V17.4434C87.8924 12.8188 86.3409 8.38525 83.5829 5.11518C80.825 1.8451 77.0857 0.00553953 73.1854 0ZM14.7117 6.97737H73.1854C75.5257 6.98032 77.7694 8.08394 79.4243 10.0461C81.0791 12.0082 82.0099 14.6686 82.0124 17.4434V22.0192H5.88468V17.4434C5.88717 14.6686 6.81796 12.0082 8.4728 10.0461C10.1276 8.08394 12.3714 6.98032 14.7117 6.97737ZM73.1854 73.3168H14.7117C12.3714 73.3138 10.1276 72.2102 8.4728 70.2481C6.81796 68.2859 5.88717 65.6256 5.88468 62.8507V28.9965H82.0124V62.8507C82.0099 65.6256 81.0791 68.2859 79.4243 70.2481C77.7694 72.2102 75.5257 73.3138 73.1854 73.3168ZM73.9698 57.0009C73.9698 57.9261 73.6598 58.8135 73.108 59.4678C72.5562 60.122 71.8078 60.4896 71.0275 60.4896H63.9729C63.1925 60.4896 62.4442 60.122 61.8924 59.4678C61.3406 58.8135 61.0306 57.9261 61.0306 57.0009C61.0306 56.0756 61.3406 55.1883 61.8924 54.534C62.4442 53.8798 63.1925 53.5122 63.9729 53.5122H71.0275C71.8078 53.5122 72.5562 53.8798 73.108 54.534C73.6598 55.1883 73.9698 56.0756 73.9698 57.0009Z" fill="#DADADB"/>
</svg>
