<svg width="22" height="19" viewBox="0 0 22 19" fill="none" xmlns="http://www.w3.org/2000/svg">
<path opacity="0.4" d="M21.2002 13.6255C21.2002 16.5631 18.8254 18.9427 15.8676 18.9532H15.857H5.35085C2.40362 18.9532 -0.00292969 16.5841 -0.00292969 13.6465V13.636C-0.00292969 13.636 0.00343124 8.97571 0.0119125 6.6319C0.0129727 6.19177 0.521847 5.94539 0.868517 6.21914C3.38744 8.20391 7.89204 11.8228 7.94823 11.8702C8.70094 12.4693 9.65507 12.8073 10.6304 12.8073C11.6058 12.8073 12.5599 12.4693 13.3126 11.8586C13.3688 11.8218 17.7727 8.31131 20.3298 6.29391C20.6775 6.01909 21.1885 6.26547 21.1896 6.70455C21.2002 9.03046 21.2002 13.6255 21.2002 13.6255Z" fill="white"/>
<path d="M20.6436 2.81552C19.7255 1.09715 17.9189 0 15.9301 0H5.34977C3.36092 0 1.55442 1.09715 0.636323 2.81552C0.430654 3.19985 0.528188 3.67892 0.870618 3.95058L8.74227 10.2039C9.29354 10.6462 9.96142 10.8662 10.6294 10.8662C10.6336 10.8662 10.6367 10.8662 10.64 10.8662C10.6431 10.8662 10.6473 10.8662 10.6505 10.8662C11.3184 10.8662 11.9864 10.6462 12.5376 10.2039L20.4092 3.95058C20.7517 3.67892 20.8492 3.19985 20.6436 2.81552Z" fill="white"/>
</svg>
